<mxfile host="app.diagrams.net" modified="2021-06-15T09:20:03.348Z" agent="5.0 (X11; Linux x86_64) AppleWebKit/537.36 (KHTML, like Gecko) Chrome/91.0.4472.101 Safari/537.36" etag="du0qeAioYasjO4Lxv8hW" version="14.7.8" type="github">
  <diagram id="8oT8lVMb-xDUk8o2M6Gl" name="Page-1">
    <mxGraphModel dx="1350" dy="774" grid="0" gridSize="10" guides="1" tooltips="1" connect="1" arrows="1" fold="1" page="1" pageScale="1" pageWidth="1169" pageHeight="827" math="0" shadow="0">
      <root>
        <mxCell id="0" />
        <mxCell id="1" parent="0" />
        <mxCell id="9-TF4dosFG0MB8OKaobY-1" value="" style="rounded=0;whiteSpace=wrap;html=1;strokeWidth=3;" parent="1" vertex="1">
          <mxGeometry x="400" y="240" width="440" height="191" as="geometry" />
        </mxCell>
        <mxCell id="9-TF4dosFG0MB8OKaobY-2" value="" style="endArrow=classic;html=1;strokeWidth=3;" parent="1" edge="1">
          <mxGeometry width="50" height="50" relative="1" as="geometry">
            <mxPoint x="360" y="200" as="sourcePoint" />
            <mxPoint x="360" y="430" as="targetPoint" />
          </mxGeometry>
        </mxCell>
        <mxCell id="9-TF4dosFG0MB8OKaobY-3" value="" style="endArrow=classic;html=1;strokeWidth=3;" parent="1" edge="1">
          <mxGeometry width="50" height="50" relative="1" as="geometry">
            <mxPoint x="360" y="200" as="sourcePoint" />
            <mxPoint x="840" y="200" as="targetPoint" />
          </mxGeometry>
        </mxCell>
        <mxCell id="9-TF4dosFG0MB8OKaobY-4" value="&lt;span style=&quot;font-size: 20px&quot;&gt;0&lt;/span&gt;" style="text;html=1;strokeColor=none;fillColor=none;align=center;verticalAlign=middle;whiteSpace=wrap;rounded=0;" parent="1" vertex="1">
          <mxGeometry x="329" y="200" width="16" height="20" as="geometry" />
        </mxCell>
        <mxCell id="9-TF4dosFG0MB8OKaobY-5" value="&lt;span style=&quot;font-size: 20px&quot;&gt;height&lt;/span&gt;" style="text;html=1;strokeColor=none;fillColor=none;align=center;verticalAlign=middle;whiteSpace=wrap;rounded=0;" parent="1" vertex="1">
          <mxGeometry x="282" y="407" width="72" height="20" as="geometry" />
        </mxCell>
        <mxCell id="9-TF4dosFG0MB8OKaobY-7" value="&lt;span style=&quot;font-size: 20px&quot;&gt;width&lt;/span&gt;" style="text;html=1;strokeColor=none;fillColor=none;align=center;verticalAlign=middle;whiteSpace=wrap;rounded=0;" parent="1" vertex="1">
          <mxGeometry x="769" y="160" width="62" height="20" as="geometry" />
        </mxCell>
        <mxCell id="9-TF4dosFG0MB8OKaobY-8" value="&lt;span style=&quot;font-size: 20px&quot;&gt;0&lt;/span&gt;" style="text;html=1;strokeColor=none;fillColor=none;align=center;verticalAlign=middle;whiteSpace=wrap;rounded=0;" parent="1" vertex="1">
          <mxGeometry x="360" y="160" width="16" height="20" as="geometry" />
        </mxCell>
      </root>
    </mxGraphModel>
  </diagram>
</mxfile>
